<?xml version="1.0" standalone="no"?>
<!DOCTYPE svg PUBLIC "-//W3C//DTD SVG 20010904//EN"
 "http://www.w3.org/TR/2001/REC-SVG-20010904/DTD/svg10.dtd">
<svg version="1.0" xmlns="http://www.w3.org/2000/svg"
 width="367.000000pt" height="367.000000pt" viewBox="0 0 367.000000 367.000000"
 preserveAspectRatio="xMidYMid meet">
<metadata>
Created by potrace 1.14, written by Peter Selinger 2001-2017
</metadata>
<g transform="translate(0.000000,367.000000) scale(0.100000,-0.100000)"
fill="#000000" stroke="none">
<path d="M1757 3555 c-31 -31 -57 -60 -57 -65 0 -6 -4 -10 -9 -10 -5 0 -45
-37 -90 -81 -69 -69 -79 -84 -69 -97 25 -31 278 -282 283 -282 9 0 295 286
295 295 0 5 -31 39 -70 77 -38 38 -70 73 -70 78 0 6 -3 9 -7 8 -5 -2 -38 28
-75 65 -37 37 -68 67 -70 67 -2 0 -30 -25 -61 -55z"/>
<path d="M1810 3001 c0 -6 -7 -11 -15 -11 -8 0 -15 -4 -15 -8 0 -5 -36 -44
-80 -88 -44 -44 -80 -79 -80 -78 0 1 -38 -37 -85 -86 -47 -49 -85 -86 -85 -83
0 3 -16 -14 -35 -37 -19 -23 -35 -40 -35 -37 0 3 -36 -32 -80 -78 -44 -46 -80
-82 -80 -81 0 2 -39 -37 -87 -87 -49 -51 -97 -99 -107 -109 -10 -10 -15 -18
-11 -18 4 0 -1 -8 -11 -18 -24 -22 -54 -64 -85 -122 -13 -25 -26 -47 -29 -50
-3 -3 -6 -9 -7 -15 -1 -5 -9 -28 -17 -50 -33 -89 -41 -77 245 -363 144 -144
266 -262 272 -262 6 0 8 -2 6 -5 -7 -7 220 -235 233 -235 6 0 9 -2 6 -5 -2 -3
36 -46 85 -95 87 -88 90 -90 109 -73 25 22 49 68 41 77 -4 3 -2 6 4 6 12 0 27
73 23 110 -2 14 -3 35 -4 47 0 12 -4 19 -8 17 -4 -3 -8 4 -8 16 0 28 -48 96
-99 143 -23 20 -41 41 -41 47 0 5 -6 10 -14 10 -8 0 -18 9 -21 20 -3 11 -11
20 -16 20 -5 0 -21 14 -36 30 -16 17 -33 36 -40 43 -6 6 -75 75 -152 151 -78
77 -141 142 -141 145 0 4 -8 11 -18 18 -50 30 -73 142 -44 213 8 22 124 150
135 150 10 0 272 -265 270 -272 -2 -4 1 -8 7 -8 13 0 319 -308 312 -315 -3 -3
0 -5 6 -5 6 0 70 -59 142 -131 l130 -131 23 29 c22 27 48 80 55 113 7 38 7
102 0 106 -5 3 -6 9 -3 14 3 5 -4 31 -17 57 -15 33 -68 94 -170 196 -81 82
-157 160 -168 174 -11 14 -20 23 -20 20 0 -4 -81 75 -180 175 -99 99 -180 184
-180 189 0 4 11 16 25 27 14 11 25 26 25 33 0 7 3 10 6 6 3 -3 40 30 81 74 42
43 80 79 86 79 5 0 23 -13 38 -30 16 -16 29 -28 29 -26 0 3 13 -7 28 -22 15
-15 27 -30 25 -34 -2 -4 6 -9 17 -13 11 -3 20 -13 20 -21 0 -8 4 -14 8 -14 4
0 29 -20 54 -45 26 -25 45 -45 43 -45 -2 0 7 -11 21 -25 14 -14 26 -25 28 -25
8 0 166 -164 166 -172 0 -4 6 -8 14 -8 8 0 18 -9 21 -21 4 -11 9 -18 11 -16 6
5 130 -123 126 -130 -2 -2 7 -13 19 -24 12 -10 19 -19 15 -19 -4 0 -1 -10 6
-22 7 -13 11 -26 10 -30 -1 -5 3 -8 8 -8 6 0 10 -8 10 -18 0 -10 3 -22 7 -26
9 -8 15 -33 17 -68 0 -14 4 -24 9 -21 4 2 7 -9 7 -25 0 -16 3 -32 7 -36 13
-12 12 -199 -1 -268 -7 -38 -11 -68 -8 -68 2 0 0 -6 -5 -12 -20 -27 -20 -205
0 -224 4 -4 7 -15 7 -24 0 -27 48 -114 80 -145 30 -29 31 -29 37 -7 3 12 9 22
13 22 4 0 13 15 20 32 8 18 19 40 26 48 6 8 19 36 28 62 9 26 20 56 25 65 12
23 23 53 28 78 2 10 8 22 14 26 8 4 7 9 -1 14 -9 5 -9 9 -1 14 6 4 13 23 15
42 3 18 5 34 6 34 4 0 10 44 12 82 2 24 7 43 11 43 4 0 3 9 -3 20 -6 11 -7 20
-3 20 10 0 9 92 -1 108 -4 7 -2 12 4 12 6 0 8 5 5 10 -9 15 -17 59 -18 103 -1
20 -5 37 -8 37 -7 0 -24 66 -22 88 0 6 -3 12 -8 12 -5 0 -9 6 -9 13 0 19 -64
139 -110 207 -25 36 -213 233 -454 474 -440 439 -446 445 -446 427z"/>
<path d="M772 1375 c1 -41 5 -75 8 -75 3 0 7 -10 8 -22 3 -29 7 -48 16 -73 5
-11 13 -33 18 -50 22 -63 93 -196 130 -245 21 -28 38 -55 38 -60 0 -6 5 -10
10 -10 6 0 10 -5 10 -10 0 -6 14 -24 30 -40 17 -16 30 -35 30 -41 0 -7 2 -10
5 -7 6 6 195 -182 195 -194 0 -4 3 -8 8 -8 12 0 120 -108 114 -115 -3 -3 -1
-5 5 -5 6 0 41 -30 77 -67 121 -124 140 -143 148 -143 5 0 8 -7 8 -15 0 -8 4
-15 9 -15 6 0 45 -37 89 -81 l79 -82 204 205 c255 258 289 294 289 310 0 8 7
23 15 36 10 14 16 44 16 84 0 67 -1 77 -19 121 -7 16 -12 30 -12 33 0 3 -12
16 -27 30 l-28 26 -37 -40 c-20 -22 -39 -37 -42 -34 -3 3 -6 -3 -6 -13 0 -10
-2 -16 -5 -13 -3 3 -62 -52 -130 -122 -69 -70 -125 -126 -125 -125 0 2 -19
-16 -42 -41 -24 -24 -47 -44 -51 -44 -4 0 -237 229 -518 510 -280 281 -512
510 -515 510 -3 0 -4 -34 -2 -75z"/>
</g>
</svg>
